<!-- icon666.com - MILLIONS OF FREE VECTOR ICONS --><svg id="Layer_1" enable-background="new 0 0 30 30" viewBox="0 0 30 30" xmlns="http://www.w3.org/2000/svg"><g><path d="m9.657 21.946c-1.53.026-1.53 2.302 0 2.328 1.53-.026 1.529-2.302 0-2.328z" fill="#000000" style="fill: rgb(56, 199, 197);"></path><path d="m20.341 21.946c-1.53.026-1.53 2.302 0 2.328 1.53-.026 1.529-2.302 0-2.328z" fill="#000000" style="fill: rgb(56, 199, 197);"></path><path d="m16.525 22.36h-3.052c-.98.004-.981 1.496 0 1.5h3.052c.979-.004.981-1.496 0-1.5z" fill="#000000" style="fill: rgb(56, 199, 197);"></path><path d="m22.445 19.182-.8-2.851c-.402-1.462-1.73-2.475-3.246-2.477h-6.8c-1.496-.009-2.853 1.027-3.242 2.471l-.8 2.858c-1.572.362-2.687 1.76-2.69 3.373v5.082c.001.958.778 1.735 1.736 1.736h1.549c1.157.01 1.888-1.061 1.747-2.153-.001-.048.039-.088.087-.088h10.03c.048 0 .088.04.087.088v.417c.001.958.777 1.734 1.735 1.736h1.561c.958-.001 1.735-.778 1.736-1.736v-5.082c-.004-1.613-1.118-3.011-2.69-3.374zm-12.638-2.456c.221-.808.954-1.369 1.792-1.372h6.8c.842.001 1.579.565 1.8 1.378l.662 2.355h-11.718zm13.823 10.912c0 .13-.106.236-.236.236h-1.556c-.13 0-.236-.105-.237-.236.134-1.004-.51-2.014-1.587-2.005h-10.03c-1.069-.008-1.72.995-1.585 1.996-.002.135-.11.243-.245.245h-1.55c-.13 0-.236-.106-.236-.236v-5.082c.001-1.087.881-1.968 1.968-1.969h13.326c1.087.001 1.967.882 1.968 1.969z" fill="#000000" style="fill: rgb(56, 199, 197);"></path><path d="m29.495 11.295c.011-.018-12.383-9.918-12.385-9.938-1.231-.998-2.993-.998-4.224 0l-12.356 9.917c-.772.596.124 1.786.91 1.192.009-.007.019-.015.028-.022l.38-.3v16.467c0 .414.336.75.75.75s.75-.336.75-.75v-17.48h23.43v17.51c0 .414.336.75.75.75s.75-.336.75-.75v-16.398l.252.2c.753.629 1.713-.513.965-1.148zm-24.521-1.668 8.851-7.1c.685-.554 1.663-.554 2.348 0l8.851 7.1z" fill="#000000" style="fill: rgb(56, 199, 197);"></path></g></svg>